<svg xmlns="http://www.w3.org/2000/svg" xmlns:xlink="http://www.w3.org/1999/xlink" width="32" height="33" fill="none" xmlns:v="https://vecta.io/nano"><g fill="#fff"><ellipse cx="21.204" cy="11.33" rx="1.087" ry="1.085"/><ellipse cx="10.331" cy="11.33" rx="1.087" ry="1.085"/><ellipse cx="10.331" cy="24.351" rx="1.087" ry="1.085"/><ellipse cx="15.768" cy="26.522" rx="1.087" ry="1.085"/><ellipse cx="7.069" cy="17.775" rx="1.087" ry="1.085"/><ellipse cx="24.466" cy="17.775" rx="1.087" ry="1.085"/><ellipse cx="21.204" cy="24.351" rx="1.087" ry="1.085"/></g><mask id="A" fill="#fff"><use xlink:href="#C" fill-rule="evenodd"/></mask><g fill="#fff"><use xlink:href="#C" fill-rule="evenodd"/><path d="M9.284 29.199l2.866 2.791-2.866-2.791zm1.226-.191l1.765-3.59-1.765 3.59zm-3.106 2.122l-2.866-2.791 2.866 2.791zm-.977-.951l2.866 2.791-2.866-2.791zm17.157-1.393l-2.866 2.791 2.866-2.791zm.098-1.552l-2.635-3.009 2.635 3.009zm-15.91-.073L5.11 30.146l2.662-2.986zm.09 1.545l-2.866-2.791 2.866 2.791zm17.079 1.473l2.866-2.791-2.866 2.791zm-.977.951l2.866-2.791-2.866 2.791zm-1.826-1.875l-2.866 2.791 2.866-2.791zm-1.217-.196l-1.73-3.607 1.73 3.607zm-1.649 2.987l1.826 1.875 5.731-5.581-1.826-1.875-5.731 5.581zm8.534-4.657l-1.357-1.393-5.731 5.581 1.357 1.393 5.731-5.581zm-1.489 2.855C29.808 27.186 32 22.647 32 17.615h-8c0 2.677-1.16 5.039-2.953 6.61l5.271 6.018zM32 17.615C32 8.556 24.848 1 15.768 1v8C20.199 9 24 12.74 24 17.615h8zM15.768 1C6.688 1-.464 8.556-.464 17.615h8C7.536 12.74 11.337 9 15.768 9V1zM-.464 17.615c0 4.98 2.147 9.477 5.574 12.532l5.324-5.971c-1.762-1.571-2.898-3.912-2.898-6.561h-8zm5.46 8.3l-1.434 1.473 5.731 5.581 1.434-1.473-5.731-5.581zm5.274 8.005l1.88-1.93-5.731-5.581-1.88 1.93 5.731 5.581zm-1.525-1.323a15.88 15.88 0 0 0 7.022 1.632v-8a7.88 7.88 0 0 1-3.493-.811l-3.53 7.179zm7.022 1.632c2.456 0 4.792-.561 6.884-1.565l-3.46-7.213c-1.04.499-2.197.777-3.423.777v8zm0-1.402c8.329 0 14.873-6.928 14.873-15.213h-8c0 4.101-3.192 7.213-6.873 7.213v8zm14.873-15.213c0-8.285-6.544-15.213-14.873-15.213v8c3.681 0 6.873 3.112 6.873 7.213h8zM15.768 2.402C7.439 2.402.895 9.33.895 17.615h8c0-4.1 3.192-7.213 6.873-7.213v-8zM.895 17.615c0 8.285 6.544 15.213 14.873 15.213v-8c-3.681 0-6.873-3.112-6.873-7.213h-8zm11.676-.317v.543h8v-.543h-8zm0 .543v.282h8v-.282h-8zm6.437.326v-.326h-8v.326h8zm0-.326v-.543h-8v.543h8zm0-.543V13.5h-8v3.798h8zm0-3.798V9.941h-8V13.5h8zm-6.437-3.559V13.5h8V9.941h-8zm0 3.559v3.798h8V13.5h-8zm3.219-8.34a4.78 4.78 0 0 0-4.781 4.781h8a3.22 3.22 0 0 1-3.219 3.219v-8zm-3.219 12.963a3.2 3.2 0 0 1 3.197-3.197v8c2.653 0 4.803-2.15 4.803-4.803h-8zM12.15 31.99c-.993 1.019-2.397 1.103-3.404.608l3.53-7.179c-1.826-.898-4.227-.683-5.857.99l5.731 5.581zm-8.588 1.93c1.838 1.887 4.87 1.887 6.708 0l-5.731-5.581a3.32 3.32 0 0 1 4.755 0L3.562 33.92zm0-6.532c-1.77 1.818-1.77 4.715 0 6.532l5.731-5.581a3.32 3.32 0 0 1 0 4.63l-5.731-5.581zm22.888-1.393c1.343 1.379.944 3.305-.133 4.248l-5.271-6.018c-1.995 1.747-2.523 5.098-.328 7.351l5.731-5.581zM15.79 13.16a3.22 3.22 0 0 1-3.219-3.219h8A4.78 4.78 0 0 0 15.79 5.16v8zM5.11 30.146c-1.063-.948-1.447-2.863-.114-4.232l5.731 5.581c2.18-2.238 1.675-5.565-.294-7.321L5.11 30.146zm22.697 3.773c1.77-1.818 1.77-4.715 0-6.532l-5.731 5.581a3.32 3.32 0 0 1 0-4.63l5.731 5.581zm-6.708 0c1.838 1.887 4.87 1.887 6.708 0l-5.731-5.581a3.32 3.32 0 0 1 4.755 0l-5.731 5.581zm-5.331-18.994a3.24 3.24 0 0 1 3.241 3.241h-8a4.76 4.76 0 0 0 4.759 4.759v-8zm9.237 11.538c-1.616-1.66-3.992-1.885-5.813-1.012l3.46 7.213c-1.004.482-2.395.391-3.379-.62l5.731-5.581z" mask="url(#A)"/><path d="M15 6V2h1.5v4z"/><rect x="8" y="2" width="15.5" height="1.5" rx=".75"/></g><defs ><path id="C" d="M20.922 29.058c.408-.196.901-.128 1.217.196l1.826 1.875a.68.68 0 1 0 .977-.951l-1.357-1.393c-.426-.437-.361-1.149.098-1.552C26.324 24.92 28 21.469 28 17.615 28 10.648 22.524 5 15.768 5S3.536 10.648 3.536 17.615c0 3.814 1.642 7.233 4.236 9.546.453.404.513 1.11.09 1.545l-1.434 1.473a.68.68 0 1 0 .977.951l1.88-1.93c.319-.327.817-.393 1.226-.191a11.88 11.88 0 0 0 5.258 1.221c1.841 0 3.588-.419 5.154-1.171zm-5.154-.231c6.005 0 10.873-5.02 10.873-11.213S21.773 6.402 15.768 6.402 4.895 11.422 4.895 17.615s4.868 11.213 10.873 11.213zm-.759-11.529V9.941a.78.78 0 1 1 1.562 0v8.182c0 .444-.359.803-.803.803a.76.76 0 0 1-.759-.759v-.868z"/></defs></svg>