<svg xmlns="http://www.w3.org/2000/svg" width="30" height="32" fill="none"  xmlns:v="https://vecta.io/nano"><g clip-path="url(#A)"><path d="M27.844 2.767c-.1-.45-.479-.767-.911-.767-4.943.033-16.951.916-21.799 8.38-2.518 3.878-2.735 8.913-.644 14.965.016.047.049.079.07.122-.747 1.973-1.037 3.286-1.044 3.323-.109.54.215 1.072.721 1.188a.88.88 0 0 0 .197.022c.432 0 .821-.321.916-.79.02-.102 2.408-10.373 10.853-16.378.431-.306.547-.927.26-1.387a.9.9 0 0 0-1.3-.277c-4.789 3.405-7.738 8.008-9.473 11.656-1.241-4.578-.916-8.377.986-11.305 3.743-5.764 12.622-7.154 17.982-7.448C23.505 5.872 22.245 9.174 22.245 15c0 3.12-.83 5.522-2.465 7.14-2.621 2.591-6.879 2.834-9.994 2.584-.518-.045-.967.371-1.006.922s.348 1.03.863 1.072c.623.051 1.289.082 1.981.082 3.171 0 6.869-.663 9.429-3.194 2.034-2.011 3.066-4.906 3.066-8.605 0-9.099 3.216-11.096 3.232-11.105.39-.209.594-.677.492-1.129z" fill="#fff"/></g><defs><clipPath id="A"><path fill="#fff" d="M0 0h30v32H0z"/></clipPath></defs></svg>