<svg xmlns="http://www.w3.org/2000/svg" width="25" height="30" fill="#fff"  fill-rule="evenodd" xmlns:v="https://vecta.io/nano"><path d="M18.617.076a1 1 0 0 1 1.09.217c.909.908 2.097 2.878 3.059 5.918C23.737 9.28 24.5 13.508 24.5 19a1 1 0 0 1-1 1H20v9a1 1 0 1 1-2 0V1a1 1 0 0 1 .617-.924zM20 18h2.491c-.086-4.816-.786-8.512-1.632-11.186A22.34 22.34 0 0 0 20 4.519V18zM6 0a1 1 0 0 1 1 1v28a1 1 0 1 1-2 0V1a1 1 0 0 1 1-1z"/><path d="M1.5 0a1 1 0 0 1 1 1v5.5a3.07 3.07 0 0 0 .701 1.917C3.68 8.983 4.514 9.5 6 9.5a1 1 0 1 1 0 2c-2.014 0-3.43-.733-4.326-1.792A5.07 5.07 0 0 1 .5 6.5V1a1 1 0 0 1 1-1z"/><path d="M10.5 0a1 1 0 0 0-1 1v5.5a3.07 3.07 0 0 1-.701 1.917C8.32 8.983 7.485 9.5 6 9.5a1 1 0 1 0 0 2c2.014 0 3.43-.733 4.326-1.792A5.07 5.07 0 0 0 11.5 6.5V1a1 1 0 0 0-1-1z"/></svg>