<svg xmlns="http://www.w3.org/2000/svg" xmlns:xlink="http://www.w3.org/1999/xlink" width="29" height="31" fill="none" xmlns:v="https://vecta.io/nano"><g clip-path="url(#B)"><g fill="#fff"><path d="M20.776 18.473c-1.706 0-3.088 1.478-3.088 3.301s1.383 3.302 3.089 3.302 3.088-1.478 3.088-3.302-1.383-3.301-3.088-3.301zm0 5.013c-.884 0-1.601-.766-1.601-1.711s.717-1.712 1.601-1.712 1.601.766 1.601 1.712-.717 1.711-1.601 1.711zM11.607-.01c-1.76 0-3.187 1.525-3.187 3.407s1.426 3.407 3.187 3.407 3.187-1.524 3.187-3.407S13.367-.01 11.607-.01zm-.001 5.476c-1.069 0-1.935-.926-1.935-2.069s.866-2.069 1.935-2.069 1.936.927 1.936 2.069-.866 2.069-1.936 2.069zM8.227 17.611c-1.294 0-2.341 1.12-2.341 2.503s1.048 2.503 2.341 2.503 2.341-1.12 2.341-2.503-1.048-2.503-2.341-2.503zM8 19.5c-.459 0 1.158 1.104 1.158.613S7.541 20.5 8 20.5s1.057-.877 1.057-.388S8.459 19.5 8 19.5zm10.5-9.737s3.04-.838 6.178 1.494c.907.76 1.765 1.336 1.152 2.122-.344.341-.637.657-1.716-.524-1.054-.76-2.72-1.898-5.614-1.442-1.128.236-1.962.551-3.556 2.149s-3.972 2.725-6.497 2.489-3.849-1.258-5.246-2.542c-.294-.42-.294-.865-.123-1.127s.833-.524 1.201-.131 2.108 1.966 3.824 2.07 3.433.21 5.737-1.966 3.458-2.331 4.659-2.593z"/></g><mask id="A" fill="#fff"><use xlink:href="#C"/></mask><g fill="#fff"><use xlink:href="#C"/><path d="M28.646 26.816h-20v.387l.015.387 19.985-.774zm-.524-19.314l.71-19.987-.355-.013h-.355v20zm-1.044.739L7.079 8.091l-.001.075v.075h20zm0 .061h-20v.008l20-.008zm-.002 18.54L7.09 26.096l19.986.746zm-.821 1.887l13.039 15.165.431-.371.41-.395-13.881-14.399zm-1.618.603l2.26-19.872-1.126-.128h-1.134v20zm-20.655-.027L.588 49.015l1.133.195 1.148.064 1.113-19.969zm-1.606-1.009l-16.34 11.534 16.34-11.534zm-.453-1.847l19.89 2.098.11-1.046v-1.052h-20zM1.249 7.503v20h.388l.387-.015-.775-19.985zm-.895.776l-19.998-.289-.002.144v.144h20zm1.548 21.874L-11.123 45.33 1.902 30.153zm2.375.856v-20h-.642l-.641.041 1.283 19.959zm23.498-1.558l15.489 12.653.006-.007-15.495-12.646zm20.871-2.636V8.157h-40v18.658h40zm0-18.658c0-4.97-1.858-11.419-7.618-16.084-4.89-3.96-10.029-4.482-12.196-4.559l-1.42 39.975c-2.017-.072-6.895-.554-11.56-4.333-5.535-4.483-7.206-10.607-7.206-14.999h40zM28.122-12.498h-.506v40h.506v-40zm-.506 0a20.47 20.47 0 0 0-12.283 4.083c-3.511 2.63-5.417 5.799-6.419 8.033-1.798 4.008-1.828 7.558-1.835 8.473l39.999.299c-.005.733-.014 3.914-1.666 7.598-.929 2.072-2.732 5.091-6.096 7.611a19.53 19.53 0 0 1-11.699 3.903v-40zM7.078 8.241v.04l40-.009v-.02l-40-.011zm0 .051c0 .01 0 .01 20 .01h20l-40-.01zm0 .017l.004 10.512-.002 7.252c-.002.788-.006.451.011.011l39.971 1.516c.019-.511.017-1.369.018-1.451l.002-7.335-.004-10.52-40 .015zm.012 17.787c.05-1.349.384-7.042 5.284-11.766l27.761 28.798c6.396-6.166 6.852-13.536 6.927-15.54L7.09 26.096zm6.126-12.532c2.539-2.183 5.355-3.328 7.807-3.844a17.96 17.96 0 0 1 3.25-.378 18.61 18.61 0 0 1 1.378.017c.218.011.43.025.638.042l.308.028.151.015.075.008.037.004c.028.003.037.004-2.222 19.876l-2.241 19.874.056.006.076.008.155.016.322.029a20.8 20.8 0 0 0 .692.045 21.38 21.38 0 0 0 1.584.019c1.137-.029 2.488-.152 3.983-.467 3.059-.644 6.683-2.09 10.031-4.968l-26.079-30.33zm11.422 15.768v-20h-.226-.64L5.093 9.314c-1.071-.005-.613-.012.003.022L2.87 49.274c.971.054 7.17.051 11.607.054l10.147.003c.015 0 .015 0 .015-20zM7.377 9.595c.432.074 2.526.427 4.938 1.653 2.566 1.305 4.774 3.209 6.402 5.514l-32.679 23.067c4.995 7.076 11.877 8.725 14.551 9.185l6.788-39.42zm11.344 7.174c2.349 3.33 2.909 6.509 3.08 7.954.101.854.121 1.595.113 2.183-.004.303-.017.59-.034.859l-.03.397-.018.193-.009.096-.007.072c-.002.018-.003.024-19.892-2.074l-19.891-2.086-.009.085-.01.1-.019.211-.035.467c-.021.329-.037.704-.043 1.118-.011.81.016 1.863.16 3.079.257 2.169 1.043 6.272 3.956 10.401l32.688-23.055zm3.203 9.68V8.315h-40v18.134h40zm0-18.134c0-6.89-3.412-14.004-10.264-17.999a20.69 20.69 0 0 0-6.982-2.527 20.65 20.65 0 0 0-2.399-.261 20.44 20.44 0 0 0-.968-.026 20.29 20.29 0 0 0-.433.004l-.205.005-.1.003-.074.003c-.012 0-.024.001.751 19.986L2 27.489h-.024l-.049.002-.099.003-.202.005-.422.003c-.289-.001-.598-.008-.925-.024-.646-.032-1.405-.103-2.247-.244a19.31 19.31 0 0 1-6.519-2.361c-2.696-1.572-5.365-4.012-7.238-7.434a19.03 19.03 0 0 1-2.352-9.124h40zM1.249-12.497H.942v40h.307v-40zm-.307 0c-4.038 0-8.32 1.192-12.061 3.906-3.522 2.555-5.491 5.674-6.552 7.946-1.899 4.063-1.959 7.69-1.972 8.637l39.996.577c-.011.758-.045 3.997-1.784 7.719a19.44 19.44 0 0 1-6.2 7.5C8.787 26.384 4.712 27.503.942 27.503v-40zM-19.646 8.279v18.537h40V8.279h-40zm0 18.537c0 7.063 2.92 13.705 8.522 18.514l26.051-30.353c1.295 1.111 2.855 2.871 3.993 5.373 1.136 2.496 1.433 4.81 1.433 6.467h-40zm8.523 18.514c3.737 3.207 7.686 4.578 10.48 5.169 1.421.301 2.679.431 3.691.483.512.026.98.032 1.397.028l.592-.015.27-.012.129-.007.063-.004.031-.002c.023-.001.031-.002-1.252-19.961L3.009 11.05l.046-.003.061-.004.123-.007.248-.011.507-.013c.342-.004.701.002 1.077.021.737.037 1.607.13 2.571.334 1.88.398 4.642 1.341 7.285 3.609l-26.05 30.355zm15.4-14.321v20l20.638-.003-.143-40h-.071l-20.41.002c-.014 0-.014 0-.014 20zm20.638 19.998c7.104-.02 13.801-3.335 18.348-8.902L12.286 16.799c2.687-3.289 7.129-5.776 12.516-5.792l.113 40zm18.354-8.91c3.245-3.977 4.434-8.096 4.913-10.529a24.74 24.74 0 0 0 .425-3.354c.026-.455.037-.866.039-1.226l-.003-.508-.005-.228-.003-.108-.002-.052-.001-.026c-.001-.019-.001-.025-19.986.749l-19.986.762-.001-.038-.002-.051-.003-.101-.005-.203-.003-.409a16.42 16.42 0 0 1 .026-.855c.033-.577.105-1.28.262-2.076.276-1.4 1.029-4.201 3.345-7.039l30.99 25.291z" mask="url(#A)"/></g></g><defs><clipPath id="B"><path fill="#fff" d="M0 0h29v31H0z"/></clipPath><path id="C" d="M28.646 26.816V8.157c0-.578-.374-.65-.524-.655h-.506c-.494 0-.537.557-.538.739l-.002 18.6c-.012.328-.073 1.166-.821 1.887-.808.695-1.618.603-1.618.603s-20.177 0-20.655-.027a2.29 2.29 0 0 1-1.606-1.009c-.564-.799-.453-1.847-.453-1.847V8.315c0-.838-.674-.812-.674-.812H.942c-.536 0-.585.588-.588.776v18.537c0 1.337.454 2.398 1.548 3.337s2.375.856 2.375.856l20.582-.002c.858-.003 1.986-.417 2.916-1.555s.871-2.636.871-2.636z"/></defs></svg>